# xmcd
#
# Track frame offsets:
#	150
#	13069
#	27164
#	44546
#	63218
#	80030
#	96617
#	114376
#	131643
#	148684
#	165937
#	180025
#
# Disc length: 2620 seconds
#
# Revision: 0
# Processed by: cddbd v1.5.2PL0 Copyright (c) Steve Scherf et al.
# Submitted via: EZCDAudioConverter 2.7.0.1
#
DISCID=990a3a0c
DTITLE=Varios Country Super Stars - Country Super Stars
DYEAR=2015
DGENRE=Country
TTITLE0=Jason Aldean
TTITLE1=Luke Brayn
TTITLE2=Florida Georgia Line
TTITLE3=Miranda Lambert
TTITLE4=Blake Seldon
TTITLE5=Dierks Bentley
TTITLE6=Brad Paisley
TTITLE7=Tim Mcgraw
TTITLE8=Thomas Rhett
TTITLE9=Cole Swindell
TTITLE10=Dan and Shay
TTITLE11=Maddie and Tae
EXTD=
EXTT0=
EXTT1=
EXTT2=
EXTT3=
EXTT4=
EXTT5=
EXTT6=
EXTT7=
EXTT8=
EXTT9=
EXTT10=
EXTT11=
PLAYORDER=
